<svg width="50" height="49" viewBox="0 0 50 49" fill="none" xmlns="http://www.w3.org/2000/svg">
<path opacity="0.963" fill-rule="evenodd" clip-rule="evenodd" d="M50 24.3155C50 24.8363 50 25.3572 50 25.878C49.792 26.4227 49.4828 26.911 49.0723 27.3428C49.0586 29.7861 48.9935 32.2275 48.877 34.667C48.3709 38.1062 46.7921 40.9219 44.1406 43.1143C44.7236 44.2965 45.2933 45.4846 45.8496 46.6787C45.9576 47.4718 45.6158 47.9275 44.8242 48.0459C44.4521 47.9983 44.1429 47.8355 43.8965 47.5576C43.3431 46.4509 42.7897 45.3441 42.2363 44.2373C40.6422 45.1284 38.9332 45.6656 37.1094 45.8487C29.0364 45.9138 20.9636 45.9138 12.8906 45.8487C11.0668 45.6656 9.35779 45.1284 7.76367 44.2373C7.19104 45.4643 6.55628 46.6524 5.85938 47.8018C4.90771 48.2335 4.32178 47.9406 4.10156 46.9229C4.6334 45.6312 5.21934 44.3616 5.85938 43.1143C3.20527 40.916 1.62649 38.1003 1.12305 34.667C1.00651 32.2275 0.94141 29.7861 0.927734 27.3428C0.489841 26.8889 0.180597 26.3681 0 25.7803C0 25.292 0 24.8037 0 24.3155C0.479172 22.8038 1.52084 21.9901 3.125 21.8741C3.10872 15.7541 3.125 9.6344 3.17383 3.51468C3.64583 1.74058 4.76888 0.617538 6.54297 0.145536C8.69111 -0.048512 10.8396 -0.048512 12.9883 0.145536C15.0416 0.816278 16.1483 2.23229 16.3086 4.39358C18.1428 4.94208 19.2984 6.14651 19.7754 8.00686C19.8405 9.30892 19.8405 10.6111 19.7754 11.9131C19.6289 12.1898 19.4173 12.4014 19.1406 12.5479C16.4714 12.613 13.8021 12.613 11.1328 12.5479C10.7158 12.4239 10.4717 12.1471 10.4004 11.7178C10.3353 10.6111 10.3353 9.50423 10.4004 8.39749C10.7887 6.30024 12.0094 4.9656 14.0625 4.39358C13.9598 3.07004 13.2436 2.33762 11.9141 2.19632C10.2826 2.10763 8.655 2.14018 7.03125 2.29397C6.17883 2.52782 5.60917 3.06493 5.32227 3.9053C5.27344 9.89475 5.25716 15.8844 5.27344 21.8741C19.2383 21.8577 33.2031 21.8741 47.168 21.9229C48.6402 22.1103 49.5842 22.9077 50 24.3155ZM14.9414 6.34671C16.3429 6.42976 17.238 7.14592 17.627 8.49514C17.6758 9.14534 17.692 9.79641 17.6758 10.4483C15.9505 10.4483 14.2253 10.4483 12.5 10.4483C12.1229 8.33379 12.9367 6.9666 14.9414 6.34671ZM3.125 24.0225C17.6758 24.0062 32.2266 24.0225 46.7773 24.0713C47.6721 24.2168 47.9813 24.7213 47.7051 25.585C47.5452 25.8106 47.3336 25.9571 47.0703 26.0244C32.3894 26.0896 17.7083 26.0896 3.02734 26.0244C2.14989 25.7505 1.9383 25.2134 2.39258 24.4131C2.61281 24.2179 2.85695 24.0877 3.125 24.0225ZM3.125 28.2217C17.7083 28.2217 32.2917 28.2217 46.875 28.2217C46.903 30.242 46.8542 32.2603 46.7285 34.2764C46.0327 38.3899 43.7704 41.2707 39.9414 42.919C38.9006 43.3175 37.8264 43.578 36.7188 43.7002C28.9062 43.7654 21.0938 43.7654 13.2812 43.7002C8.66502 43.1439 5.49119 40.7187 3.75977 36.4248C3.53545 35.7229 3.37269 35.0067 3.27148 34.2764C3.14582 32.2603 3.09699 30.242 3.125 28.2217Z" fill="#0A0A0A"/>
</svg>
