<svg width="50" height="49" viewBox="0 0 50 49" fill="none" xmlns="http://www.w3.org/2000/svg">
<path opacity="0.922" fill-rule="evenodd" clip-rule="evenodd" d="M21.8435 0.000580289C22.4036 -0.0139963 22.7286 0.246047 22.8186 0.780705C22.2659 1.75608 21.7621 2.76373 21.3071 3.80369C21.0432 4.78656 21.1407 5.72921 21.5997 6.63164C22.1796 7.50413 22.7972 8.34926 23.4525 9.16705C24.6312 11.0251 24.7938 12.9754 23.9401 15.018C23.5792 15.8867 23.108 16.6832 22.5261 17.4071C21.8362 17.7122 21.4135 17.501 21.2584 16.7733C21.6359 15.986 22.0422 15.2059 22.4773 14.4329C23.1658 12.8608 23.0357 11.3656 22.0873 9.94717C21.2758 8.97484 20.5608 7.93465 19.9419 6.82667C19.4393 5.33859 19.5044 3.87586 20.1369 2.43847C20.5502 1.4935 21.119 0.680869 21.8435 0.000580289Z" fill="#0A0A0A"/>
<path opacity="0.922" fill-rule="evenodd" clip-rule="evenodd" d="M13.8435 0.000580289C14.4036 -0.0139963 14.7286 0.246047 14.8186 0.780705C14.2659 1.75608 13.7621 2.76373 13.3071 3.80369C13.0432 4.78656 13.1407 5.72921 13.5997 6.63164C14.1796 7.50413 14.7972 8.34926 15.4525 9.16705C16.6312 11.0251 16.7938 12.9754 15.9401 15.018C15.5792 15.8867 15.108 16.6832 14.5261 17.4071C13.8362 17.7122 13.4135 17.501 13.2584 16.7733C13.6359 15.986 14.0422 15.2059 14.4773 14.4329C15.1658 12.8608 15.0357 11.3656 14.0873 9.94717C13.2758 8.97484 12.5608 7.93465 11.9419 6.82667C11.4393 5.33859 11.5044 3.87586 12.1369 2.43847C12.5502 1.4935 13.119 0.680869 13.8435 0.000580289Z" fill="#0A0A0A"/>
<path opacity="0.933" fill-rule="evenodd" clip-rule="evenodd" d="M49.928 27.1099C49.928 28.7677 49.928 30.4254 49.928 32.0832C49.4742 34.6321 48.174 36.6311 46.0274 38.0804C43.0073 39.8155 39.9843 39.8318 36.9584 38.1292C35.2969 40.0675 33.3142 41.579 31.01 42.6636C35.5363 42.6646 40.0545 42.7296 44.5646 42.8587C44.9364 45.202 44.0263 46.8597 41.8342 47.832C41.6111 47.9121 41.3835 47.9772 41.1516 48.027C39.5298 48.1788 37.9045 48.2114 36.2758 48.1245C35.5906 47.721 35.5255 47.2334 36.0808 46.6618C37.511 46.6293 38.9412 46.5967 40.3715 46.5643C41.7052 46.3513 42.6153 45.6199 43.1019 44.3702C29.2871 44.2402 15.4725 44.2402 1.65776 44.3702C2.13423 45.6333 3.04437 46.3647 4.3882 46.5643C14.1398 46.5967 23.8913 46.6293 33.6429 46.6618C33.8216 46.7105 33.9354 46.8243 33.9842 47.0031C34.1784 47.5723 33.9996 47.9462 33.4478 48.1245C28.5884 48.1408 23.7288 48.157 18.8693 48.1733C13.7796 48.188 8.69253 48.1392 3.60808 48.027C1.70511 47.538 0.502422 46.3515 0 44.4677C0 44.0126 0 43.5576 0 43.1025C0.0796151 42.9421 0.209636 42.8284 0.390062 42.7612C4.81077 42.7287 9.23148 42.6961 13.6522 42.6636C11.9458 41.8026 10.4018 40.7136 9.02019 39.3969C8.76029 38.7464 8.97157 38.3239 9.65404 38.1292C9.81953 38.1681 9.98199 38.2168 10.1416 38.2754C12.9053 40.9568 16.2208 42.4196 20.0882 42.6636C22.4071 42.7928 24.715 42.6952 27.0118 42.3711C33.0288 40.8722 36.9133 37.1504 38.6649 31.2056C38.8476 30.4672 38.9776 29.7196 39.055 28.9627C39.12 26.6874 39.12 24.4119 39.055 22.1366C39.0062 21.9579 38.8924 21.8441 38.7137 21.7953C36.1783 21.7628 33.6429 21.7303 31.1075 21.6978C30.4983 21.2576 30.4658 20.77 31.01 20.2351C33.6753 20.17 36.3408 20.17 39.0062 20.2351C39.9381 20.4878 40.507 21.0892 40.7128 22.0391C44.1619 20.9096 46.9248 21.8198 49.0016 24.7695C49.4188 25.5195 49.7277 26.2997 49.928 27.1099ZM42.4193 23.1118C45.0207 22.9386 46.8898 24.0113 48.0264 26.3298C48.2803 26.955 48.4102 27.6051 48.4165 28.2801C48.4839 29.5177 48.4514 30.7529 48.319 31.9857C47.6628 35.0798 45.7938 36.9813 42.7118 37.6904C40.9746 38.0042 39.3493 37.7116 37.836 36.8127C38.1339 36.3624 38.4426 35.9236 38.7624 35.4962C41.572 36.7783 43.9448 36.2258 45.8811 33.8385C46.2485 33.2333 46.5085 32.5833 46.6612 31.8882C46.8691 30.3404 46.8528 28.7963 46.6124 27.2562C45.8845 25.3962 44.5193 24.5836 42.5168 24.8183C41.9003 25.0077 41.2826 25.1864 40.664 25.3546C40.6478 24.8011 40.6641 24.2485 40.7128 23.6969C41.2812 23.4696 41.8501 23.2745 42.4193 23.1118ZM42.7118 26.3298C43.8542 26.1937 44.6506 26.6488 45.101 27.695C45.2916 29.0268 45.2916 30.3595 45.101 31.6931C44.1788 34.1898 42.4399 35.0512 39.8839 34.2773C39.6835 34.2103 39.521 34.0965 39.3963 33.936C40.3043 31.7528 40.7431 29.4774 40.7128 27.1099C41.3918 26.859 42.0581 26.5989 42.7118 26.3298Z" fill="#0A0A0A"/>
<path opacity="0.933" fill-rule="evenodd" clip-rule="evenodd" d="M5.75341 20.1863C13.3597 20.17 20.9659 20.1863 28.5721 20.235C28.9868 20.5685 29.0681 20.9749 28.8158 21.454C28.7278 21.5711 28.6141 21.6524 28.4745 21.6978C20.9254 21.6984 13.3842 21.7633 5.85093 21.8928C5.7899 21.9659 5.74114 22.0473 5.70465 22.1366C5.6145 24.7073 5.64701 27.2752 5.80217 29.8403C5.95124 30.6641 6.14627 31.4767 6.38726 32.2782C6.85419 33.4551 7.35802 34.609 7.89875 35.74C7.89034 36.2523 7.63029 36.5286 7.11863 36.5689C6.8106 36.505 6.56681 36.3425 6.38726 36.0813C5.13118 33.9383 4.38357 31.6305 4.1444 29.1577C4.07939 26.6874 4.07939 24.2169 4.1444 21.7465C4.41277 20.9417 4.9491 20.4216 5.75341 20.1863Z" fill="#0A0A0A"/>
<path opacity="0.92" fill-rule="evenodd" clip-rule="evenodd" d="M29.3522 3.21854C30.3243 3.06878 30.6981 3.45884 30.4736 4.38873C30.0729 4.7895 29.7478 5.24457 29.4984 5.75395C29.2247 6.45719 29.3547 7.07478 29.8885 7.60674C32.2248 9.61049 32.4036 11.7883 30.4248 14.1403C29.9615 14.543 29.5226 14.5105 29.1084 14.0428C29.0433 13.7827 29.0433 13.5227 29.1084 13.2626C29.4717 12.8016 29.7967 12.314 30.0835 11.7999C30.3445 11.0922 30.247 10.4421 29.791 9.8496C29.0236 9.14778 28.4061 8.33512 27.9382 7.41171C27.7073 6.57488 27.7722 5.76225 28.1332 4.97382C28.4684 4.33486 28.8747 3.74977 29.3522 3.21854Z" fill="#0A0A0A"/>
</svg>
